<?xml version="1.0" standalone="no"?><!DOCTYPE svg PUBLIC "-//W3C//DTD SVG 1.1//EN" "http://www.w3.org/Graphics/SVG/1.1/DTD/svg11.dtd"><svg class="icon" style="width: 5em; height: 5em;vertical-align: middle;fill: currentColor;overflow: hidden;" viewBox="0 0 1024 1024" version="1.1" xmlns="http://www.w3.org/2000/svg"><path d="M686.492348 354.463584c19.884085-14.1215-200.77227-118.354635-200.77227-118.354635A207.769694 207.769694 0 0 1 625.066989 11.68475a17.509394 17.509394 0 1 1 22.258777 22.353765 172.65592 172.65592 0 0 0-9.593755 56.35935 172.940883 172.940883 0 0 0 172.750907 172.750907c18.680908 0 37.330154-3.102931 55.409474-9.245466a17.509394 17.509394 0 0 1 22.227114 22.353764 207.643044 207.643044 0 0 1-76.370085 101.858444l-125.257073-23.65193z" fill="#FF9900" /><path d="M246.604453 668.049542c-67.884521 0-123.104019-54.934535-123.104019-122.50243 0-67.187944 54.649572-121.932504 122.027492-122.502431 9.023829-117.309771 107.811004-210.017736 227.938743-210.017736 81.056144 0 154.924888 42.1112 196.149536 110.882273a174.52401 174.52401 0 0 1 44.770855-5.889236c96.98241 0 175.853838 78.491477 175.853838 174.998949s-78.871428 174.998949-175.853838 174.998948H246.604453z" fill="#495060" /></svg>