<?xml version="1.0" standalone="no"?><!DOCTYPE svg PUBLIC "-//W3C//DTD SVG 1.1//EN" "http://www.w3.org/Graphics/SVG/1.1/DTD/svg11.dtd"><svg class="icon" style="width: 5em; height: 5em;vertical-align: middle;fill: currentColor;overflow: hidden;" viewBox="0 0 1024 1024" version="1.1" xmlns="http://www.w3.org/2000/svg"><path d="M230.048 628.032h581.184a27.68 27.68 0 1 1 0 55.36H230.048a27.68 27.68 0 1 1 0-55.36zM327.968 466.24a34.048 34.048 0 1 1-68.096 0 34.048 34.048 0 0 1 68.096 0zM766.528 466.24a34.048 34.048 0 1 1-68.096 0 34.048 34.048 0 0 1 68.096 0zM327.968 283.136a34.048 34.048 0 1 1-68.096 0 34.048 34.048 0 0 1 68.096 0zM766.528 283.136a34.048 34.048 0 1 1-68.096 0 34.048 34.048 0 0 1 68.096 0zM464.224 364.032a34.048 34.048 0 1 1-68.096 0 34.048 34.048 0 0 1 68.096 0zM630.272 364.032a34.048 34.048 0 1 1-68.096 0 34.048 34.048 0 0 1 68.096 0zM464.224 500.288a34.048 34.048 0 1 1-68.096 0 34.048 34.048 0 0 1 68.096 0zM630.272 500.288a34.048 34.048 0 1 1-68.096 0 34.048 34.048 0 0 1 68.096 0z" fill="#FF9900" /></svg>