<?xml version="1.0" standalone="no"?><!DOCTYPE svg PUBLIC "-//W3C//DTD SVG 1.1//EN" "http://www.w3.org/Graphics/SVG/1.1/DTD/svg11.dtd"><svg class="icon" style="width: 5em; height: 5em;vertical-align: middle;fill: currentColor;overflow: hidden;" viewBox="0 0 1024 1024" version="1.1" xmlns="http://www.w3.org/2000/svg"><path d="M549.088 652.608l-12.896 63.2h71.744l-156.224 200.768 29.408-144.256h-75.52l24.416-119.744h119.072z m-330.88 142.848l54.304-54.592c6.912-6.944 18.08-6.944 24.992 0s6.912 18.176 0 25.12L243.2 820.576a17.504 17.504 0 0 1-24.96 0 17.792 17.792 0 0 1 0-25.12z m501.12-54.592c6.88-6.944 18.08-6.944 24.992 0s6.912 18.176 0 25.12l-54.304 54.592a17.536 17.536 0 0 1-24.96 0 17.792 17.792 0 0 1 0-25.12l54.304-54.592z" fill="#43A3FB" /><path d="M243.776 664.256c-68.608 0-124.416-55.52-124.416-123.808 0-67.904 55.232-123.232 123.328-123.808 9.12-118.56 108.96-212.256 230.368-212.256 81.92 0 156.576 42.56 198.24 112.064a176.384 176.384 0 0 1 45.248-5.952c98.016 0 177.728 79.328 177.728 176.864s-79.712 176.864-177.728 176.864H243.776z" fill="#C0DCFA" /></svg>