<?xml version="1.0" standalone="no"?><!DOCTYPE svg PUBLIC "-//W3C//DTD SVG 1.1//EN" "http://www.w3.org/Graphics/SVG/1.1/DTD/svg11.dtd"><svg class="icon" style="width: 5em; height: 5em;vertical-align: middle;fill: currentColor;overflow: hidden;" viewBox="0 0 1024 1024" version="1.1" xmlns="http://www.w3.org/2000/svg"><path d="M479.136 295.904a34.048 34.048 0 1 1-68.096 0 34.048 34.048 0 0 1 68.096 0zM330.112 393.856a34.048 34.048 0 1 1-68.096 0 34.048 34.048 0 0 1 68.096 0zM270.496 555.648a34.048 34.048 0 1 1-68.096 0 34.048 34.048 0 0 1 68.096 0zM330.112 227.808a34.048 34.048 0 1 1-68.096 0 34.048 34.048 0 0 1 68.096 0zM700.544 246.24c-62.496 130.72-157.568 194.528-289.824 195.648a36.16 36.16 0 1 0 0.64 72.384c160.64-1.376 280.352-81.728 354.528-236.8a36.192 36.192 0 0 0-65.28-31.232zM732.672 463.072c-88.32 114.88-194.56 157.504-324.192 131.104a36.16 36.16 0 1 0-14.432 70.944c157.408 32.064 291.232-21.664 396-157.92a36.192 36.192 0 1 0-57.376-44.128z" fill="#FF9900" /></svg>