<?xml version="1.0" standalone="no"?><!DOCTYPE svg PUBLIC "-//W3C//DTD SVG 1.1//EN" "http://www.w3.org/Graphics/SVG/1.1/DTD/svg11.dtd"><svg class="icon" style="width: 5em; height: 5em;vertical-align: middle;fill: currentColor;overflow: hidden;" viewBox="0 0 1024 1024" version="1.1" xmlns="http://www.w3.org/2000/svg"><path d="M237.472 916.48a17.696 17.696 0 1 0 25.088 25.088l177.984-177.984a17.696 17.696 0 1 0-25.088-25.088L237.472 916.48z m-106.432 0a17.696 17.696 0 1 0 25.088 25.088l177.984-177.984a17.696 17.696 0 1 0-25.088-25.088L131.04 916.48z m217.12 0a17.696 17.696 0 1 0 25.088 25.088l177.984-177.984a17.696 17.696 0 1 0-25.088-25.088L348.16 916.48z m212.896 0l177.984-177.984a17.696 17.696 0 1 1 25.088 25.088l-177.984 177.984a17.696 17.696 0 1 1-25.088-25.088z m-110.688 0l177.984-177.984a17.696 17.696 0 1 1 25.088 25.088l-177.984 177.984a17.696 17.696 0 1 1-25.088-25.088z" fill="#43A3FB" /><path d="M243.776 664.256c-68.608 0-124.416-55.52-124.416-123.808 0-67.904 55.232-123.232 123.328-123.808 9.12-118.56 108.96-212.256 230.368-212.256 81.92 0 156.576 42.56 198.24 112.064a176.384 176.384 0 0 1 45.248-5.952c98.016 0 177.728 79.328 177.728 176.864s-79.712 176.864-177.728 176.864H243.776z" fill="#C0DCFA" /></svg>