<?xml version="1.0" standalone="no"?><!DOCTYPE svg PUBLIC "-//W3C//DTD SVG 1.1//EN" "http://www.w3.org/Graphics/SVG/1.1/DTD/svg11.dtd">
<svg class="icon" style="width: 5em; height: 5em;vertical-align: middle;fill: currentColor;overflow: hidden;" viewBox="0 0 1024 1024" version="1.1" xmlns="http://www.w3.org/2000/svg">
	<path d="M813.6 465.8h-116c-18.6 0-33.7-15.1-33.7-33.7s15.1-33.7 33.7-33.7h116c18.6 0 33.7 15.1 33.7 33.7s-15 33.7-33.7 33.7zM584.5 465.8H210.4c-18.6 0-33.7-15.1-33.7-33.7s15.1-33.7 33.7-33.7h374.2c18.6 0 33.7 15.1 33.7 33.7s-15.2 33.7-33.8 33.7zM326.4 789.3h-116c-18.6 0-33.7-15.1-33.7-33.7s15.1-33.7 33.7-33.7h116c18.6 0 33.7 15.1 33.7 33.7s-15.1 33.7-33.7 33.7zM813.6 789.3H439.5c-18.6 0-33.7-15.1-33.7-33.7s15.1-33.7 33.7-33.7h374.2c18.6 0 33.7 15.1 33.7 33.7-0.1 18.6-15.1 33.7-33.8 33.7z" fill="#43A3FB" />
	<path d="M797.3 270.4m-35.7 0a35.7 35.7 0 1 0 71.4 0 35.7 35.7 0 1 0-71.4 0Z" fill="#43A3FB" />
	<path d="M607.1 270.4m-35.7 0a35.7 35.7 0 1 0 71.4 0 35.7 35.7 0 1 0-71.4 0Z" fill="#43A3FB" />
	<path d="M416.9 270.4m-35.7 0a35.7 35.7 0 1 0 71.4 0 35.7 35.7 0 1 0-71.4 0Z" fill="#43A3FB" />
	<path d="M226.7 270.4m-35.7 0a35.7 35.7 0 1 0 71.4 0 35.7 35.7 0 1 0-71.4 0Z" fill="#43A3FB" />
	<path d="M797.3 593.9m-35.7 0a35.7 35.7 0 1 0 71.4 0 35.7 35.7 0 1 0-71.4 0Z" fill="#43A3FB" />
	<path d="M607.1 593.9m-35.7 0a35.7 35.7 0 1 0 71.4 0 35.7 35.7 0 1 0-71.4 0Z" fill="#43A3FB" />
	<path d="M416.9 593.9m-35.7 0a35.7 35.7 0 1 0 71.4 0 35.7 35.7 0 1 0-71.4 0Z" fill="#43A3FB" />
	<path d="M226.7 593.9m-35.7 0a35.7 35.7 0 1 0 71.4 0 35.7 35.7 0 1 0-71.4 0Z" fill="#43A3FB" />
</svg>